<svg version="1.1" viewBox="0.0 0.0 258.87664041994753 307.4146981627297" fill="none" stroke="none" stroke-linecap="square" stroke-miterlimit="10" xmlns:xlink="http://www.w3.org/1999/xlink" xmlns="http://www.w3.org/2000/svg"><clipPath id="p.0"><path d="m0 0l258.87665 0l0 307.4147l-258.87665 0l0 -307.4147z" clip-rule="nonzero"/></clipPath><g clip-path="url(#p.0)"><path fill="#000000" fill-opacity="0.0" d="m0 0l258.87665 0l0 307.4147l-258.87665 0z" fill-rule="evenodd"/><path fill="#38761d" d="m0 147.6378l126.062996 -147.6378l126.062996 0l-252.12599 295.2756z" fill-rule="evenodd"/><path stroke="#38761d" stroke-width="1.0" stroke-linejoin="round" stroke-linecap="butt" d="m0 147.6378l126.062996 -147.6378l126.062996 0l-252.12599 295.2756z" fill-rule="evenodd"/><path fill="#000000" fill-opacity="0.0" d="m20.50693 145.39053l111.18111 -128.88188l18.393692 15.874014l-111.18109 128.8819z" fill-rule="evenodd"/><path fill="#ffffff" d="m63.400494 166.57803l-10.897873 -18.775177l-2.0177917 1.932373l-2.6970139 -2.3275452l6.5829887 -7.6310577l25.090683 9.786102l0.03062439 -0.035507202l1.7394485 -1.8010864l2.8271332 2.4398499l-7.409691 8.589371l-2.6970139 -2.3275604l0.98560333 -1.3578033q0.42053986 -0.60710144 0.39295197 -0.981781q-0.02758789 -0.37467957 -0.70277405 -0.6684265l-2.6722412 -1.0884705l-6.725876 7.7966766l2.076271 3.5255432l1.8313065 -1.9075775l2.8271332 2.439865l-6.644226 7.7020264l-2.6970139 -2.3275604l0.8427124 -1.1921692q0.54302216 -0.7490692 -0.06534195 -1.7900848zm-7.3533745 -21.185608l6.8128395 11.287033l5.3378334 -6.1876526l-12.069023 -5.194031l-0.08164978 0.09465027zm29.136177 3.4699097l-2.6970139 -2.3275604l0.8427124 -1.1921692q0.7320709 -1.039978 -0.095962524 -1.7545776l-15.495995 -13.3732605l-1.7276154 1.8113098l-2.8389626 -2.4500732l7.868969 -9.1217575q4.225357 -4.8980637 9.195572 -5.3969803q4.980423 -0.51075745 10.078728 3.889145q3.1583405 2.7257004 4.787674 5.5972137q1.6277084 2.8494797 1.7294388 5.434601q0.1916275 5.1600647 -3.4928055 9.431076l-8.154739 9.453033zm-13.627777 -22.452034l15.720749 13.567223l2.9291763 -3.395523q2.4698944 -2.8631287 1.7776566 -6.246826q-0.68203735 -3.395523 -4.609268 -6.784775q-7.653366 -6.6049576 -13.256561 -0.109695435l-2.5617523 2.9695969zm16.728645 -25.946266l19.947083 7.328453l0.06123352 -0.070991516l-10.149147 -18.68628l5.695053 -6.6017456l2.6970139 2.3275604l-0.8427124 1.1921692q-0.7728958 1.0873108 0.3223343 1.9705887l15.984047 12.329079l1.8823395 -1.9667358l2.8271332 2.4398575l-6.919792 8.021469l-2.6970139 -2.3275604l0.9243622 -1.2868118q0.71652985 -0.9502106 -0.11846161 -1.6088943l-12.298958 -9.520294l-0.06124115 0.07098389l8.866318 16.609146l-2.7250519 3.1588974l-17.533928 -6.298462l-0.06123352 0.07098389l11.789757 11.330521l1.9741974 -2.0732117l2.8271332 2.4398575l-6.787117 7.867668l-2.6970139 -2.3275604l0.9345703 -1.298645q0.5940552 -0.80823517 -0.18457031 -1.6040344l-14.708496 -14.262207l-1.885582 1.9226532l-2.8389587 -2.450058l5.776703 -6.696396zm37.814323 -6.9008255l-15.330391 -13.230339l-1.7378235 1.8231354l-2.8389587 -2.450058l6.960617 -8.068794l2.6970062 2.3275604l-0.8427124 1.1921616q-0.7422714 1.0518188 0.22770691 1.8889236l15.35405 13.250755l1.749649 -1.8129272l2.8271332 2.4398499l-6.960617 8.068794l-2.6970139 -2.3275604l0.8427124 -1.1921616q0.36951447 -0.54795074 0.36071777 -0.9683304q-0.020629883 -0.43058014 -0.6120758 -0.9410095zm10.9290085 -4.799019l-2.6970215 -2.3275604l0.9243622 -1.2868118q0.6961212 -0.9265442 -0.16740417 -1.6717758l-15.495987 -13.373253l-1.7378311 1.8231354l-2.8389587 -2.450058l5.1745377 -5.9983597l23.42923 3.77034l0.06123352 -0.070991516l-12.361298 -10.667973l-1.9929962 2.1189117l-2.838951 -2.4500618l7.01165 -8.127953l2.6970062 2.3275604l-0.9243622 1.2868156q-0.6230469 0.8657646 0.33509827 1.6926613l18.323135 15.813103l-3.368042 3.9042587l-23.817284 -3.7750015l-0.06124115 0.07098389l12.58606 10.861938l1.9741974 -2.073204l2.8271332 2.4398499l-7.042267 8.1634445z" fill-rule="nonzero"/></g></svg>
